<?xml version="1.0" encoding="UTF-8" standalone="no"?>
<!-- Created with Inkscape (http://www.inkscape.org/) -->

<svg
   version="1.1"
   id="svg1"
   width="453.54266"
   height="453.54266"
   viewBox="0 0 453.54266 453.54266"
   xmlns="http://www.w3.org/2000/svg"
   xmlns:svg="http://www.w3.org/2000/svg">
  <defs
     id="defs1">
    <clipPath
       clipPathUnits="userSpaceOnUse"
       id="clipPath34">
      <path
         d="M 0,0 H 210.28896 V 68.55484 H 0 Z"
         id="path34" />
    </clipPath>
    <clipPath
       clipPathUnits="userSpaceOnUse"
       id="clipPath36">
      <path
         d="M 0,0 H 210.28896 V 68.55484 H 0 Z"
         id="path36" />
    </clipPath>
    <clipPath
       clipPathUnits="userSpaceOnUse"
       id="clipPath41">
      <path
         d="M 0,0 H 210.28896 V 68.55484 H 0 Z"
         transform="matrix(1,0,0,-1,-69.977002,42.115999)"
         id="path41" />
    </clipPath>
  </defs>
  <g
     id="g1">
    <path
       id="path1"
       d="m 97.79639,-73.70186 c 0,3.44426 -43.78426,6.23633 -97.79639,6.23633 -54.01213,0 -97.79639,-2.79207 -97.79639,-6.23633 0,-3.44426 43.78426,-6.23633 97.79639,-6.23633 54.01213,0 97.79639,2.79207 97.79639,6.23633 z"
       style="fill:#999999;fill-opacity:0.18;fill-rule:nonzero;stroke:none"
       transform="matrix(1.3333333,0,0,-1.3333333,226.772,226.77067)" />
    <path
       id="path2"
       d="m 103.46567,0 c 0,36.00818 -5.71097,65.19774 -12.75597,65.19774 -7.04501,0 -12.75596,-29.18956 -12.75596,-65.19774 0,-36.00818 5.71095,-65.19774 12.75596,-65.19774 7.045,0 12.75597,29.18956 12.75597,65.19774 z"
       style="fill:none;stroke:#224678;stroke-width:1.0959;stroke-linecap:butt;stroke-linejoin:miter;stroke-miterlimit:10;stroke-dasharray:2.98883, 2.98883;stroke-dashoffset:0;stroke-opacity:1"
       transform="matrix(1.3333333,0,0,-1.3333333,226.772,226.77067)" />
    <path
       id="path3"
       d="m -77.95374,0 c 0,36.00818 -5.71095,65.19774 -12.75596,65.19774 -7.045,0 -12.75597,-29.18956 -12.75597,-65.19774 0,-36.00818 5.71097,-65.19774 12.75597,-65.19774 7.04501,0 12.75596,29.18956 12.75596,65.19774 z"
       style="fill:#ffffff;fill-opacity:1;fill-rule:nonzero;stroke:#224678;stroke-width:1.0959;stroke-linecap:butt;stroke-linejoin:miter;stroke-miterlimit:10;stroke-dasharray:none;stroke-opacity:1"
       transform="matrix(1.3333333,0,0,-1.3333333,226.772,226.77067)" />
    <path
       id="path4"
       d="M -90.7097,65.19774 H 90.7097"
       style="fill:none;stroke:#224678;stroke-width:1.0959;stroke-linecap:butt;stroke-linejoin:miter;stroke-miterlimit:10;stroke-dasharray:none;stroke-opacity:1"
       transform="matrix(1.3333333,0,0,-1.3333333,226.772,226.77067)" />
    <path
       id="path5"
       d="M -90.7097,-65.19774 H 90.7097"
       style="fill:none;stroke:#224678;stroke-width:1.0959;stroke-linecap:butt;stroke-linejoin:miter;stroke-miterlimit:10;stroke-dasharray:none;stroke-opacity:1"
       transform="matrix(1.3333333,0,0,-1.3333333,226.772,226.77067)" />
    <path
       id="path6"
       d="m -62.92995,-45.35506 c 0,2.8179 -2.28431,5.10222 -5.10222,5.10222 -2.81788,0 -5.1022,-2.28432 -5.1022,-5.10222 0,-2.81788 2.28432,-5.1022 5.1022,-5.1022 2.81791,0 5.10222,2.28432 5.10222,5.1022 z"
       style="fill:#b9d7d4;fill-opacity:1;fill-rule:nonzero;stroke:#385986;stroke-width:0.49814;stroke-linecap:butt;stroke-linejoin:miter;stroke-miterlimit:10;stroke-dasharray:none;stroke-opacity:1"
       transform="matrix(1.3333333,0,0,-1.3333333,226.772,226.77067)" />
    <path
       id="path7"
       d="m -45.92212,-34.01608 c 0,2.8179 -2.2843,5.10222 -5.1022,5.10222 -2.8179,0 -5.10221,-2.28432 -5.10221,-5.10222 0,-2.81789 2.28431,-5.10221 5.10221,-5.10221 2.8179,0 5.1022,2.28432 5.1022,5.10221 z"
       style="fill:#b9d7d4;fill-opacity:1;fill-rule:nonzero;stroke:#385986;stroke-width:0.49814;stroke-linecap:butt;stroke-linejoin:miter;stroke-miterlimit:10;stroke-dasharray:none;stroke-opacity:1"
       transform="matrix(1.3333333,0,0,-1.3333333,226.772,226.77067)" />
    <path
       id="path8"
       d="m -28.91386,-48.18947 c 0,2.8179 -2.28432,5.1022 -5.10222,5.1022 -2.81789,0 -5.10221,-2.2843 -5.10221,-5.1022 0,-2.8179 2.28432,-5.10222 5.10221,-5.10222 2.8179,0 5.10222,2.28432 5.10222,5.10222 z"
       style="fill:#b9d7d4;fill-opacity:1;fill-rule:nonzero;stroke:#385986;stroke-width:0.49814;stroke-linecap:butt;stroke-linejoin:miter;stroke-miterlimit:10;stroke-dasharray:none;stroke-opacity:1"
       transform="matrix(1.3333333,0,0,-1.3333333,226.772,226.77067)" />
    <path
       id="path9"
       d="m -14.74045,-39.68535 c 0,2.8179 -2.28432,5.1022 -5.10222,5.1022 -2.8179,0 -5.1022,-2.2843 -5.1022,-5.1022 0,-2.8179 2.2843,-5.1022 5.1022,-5.1022 2.8179,0 5.10222,2.2843 5.10222,5.1022 z"
       style="fill:#b9d7d4;fill-opacity:1;fill-rule:nonzero;stroke:#385986;stroke-width:0.49814;stroke-linecap:butt;stroke-linejoin:miter;stroke-miterlimit:10;stroke-dasharray:none;stroke-opacity:1"
       transform="matrix(1.3333333,0,0,-1.3333333,226.772,226.77067)" />
    <path
       id="path10"
       d="m 5.1022,-39.68535 c 0,2.8179 -2.28431,5.1022 -5.1022,5.1022 -2.81789,0 -5.1022,-2.2843 -5.1022,-5.1022 0,-2.8179 2.28431,-5.1022 5.1022,-5.1022 2.81789,0 5.1022,2.2843 5.1022,5.1022 z"
       style="fill:#b9d7d4;fill-opacity:1;fill-rule:nonzero;stroke:#385986;stroke-width:0.49814;stroke-linecap:butt;stroke-linejoin:miter;stroke-miterlimit:10;stroke-dasharray:none;stroke-opacity:1"
       transform="matrix(1.3333333,0,0,-1.3333333,226.772,226.77067)" />
    <path
       id="path11"
       d="m 22.11044,-48.18947 c 0,2.8179 -2.2843,5.1022 -5.1022,5.1022 -2.8179,0 -5.1022,-2.2843 -5.1022,-5.1022 0,-2.8179 2.2843,-5.10222 5.1022,-5.10222 2.8179,0 5.1022,2.28432 5.1022,5.10222 z"
       style="fill:#b9d7d4;fill-opacity:1;fill-rule:nonzero;stroke:#385986;stroke-width:0.49814;stroke-linecap:butt;stroke-linejoin:miter;stroke-miterlimit:10;stroke-dasharray:none;stroke-opacity:1"
       transform="matrix(1.3333333,0,0,-1.3333333,226.772,226.77067)" />
    <path
       id="path12"
       d="m 44.78755,-45.35506 c 0,2.8179 -2.2843,5.10222 -5.1022,5.10222 -2.8179,0 -5.1022,-2.28432 -5.1022,-5.10222 0,-2.81788 2.2843,-5.1022 5.1022,-5.1022 2.8179,0 5.1022,2.28432 5.1022,5.1022 z"
       style="fill:#b9d7d4;fill-opacity:1;fill-rule:nonzero;stroke:#385986;stroke-width:0.49814;stroke-linecap:butt;stroke-linejoin:miter;stroke-miterlimit:10;stroke-dasharray:none;stroke-opacity:1"
       transform="matrix(1.3333333,0,0,-1.3333333,226.772,226.77067)" />
    <path
       id="path13"
       d="m 61.79582,-39.68535 c 0,2.8179 -2.28432,5.1022 -5.1022,5.1022 -2.8179,0 -5.10222,-2.2843 -5.10222,-5.1022 0,-2.8179 2.28432,-5.1022 5.10222,-5.1022 2.81788,0 5.1022,2.2843 5.1022,5.1022 z"
       style="fill:#b9d7d4;fill-opacity:1;fill-rule:nonzero;stroke:#385986;stroke-width:0.49814;stroke-linecap:butt;stroke-linejoin:miter;stroke-miterlimit:10;stroke-dasharray:none;stroke-opacity:1"
       transform="matrix(1.3333333,0,0,-1.3333333,226.772,226.77067)" />
    <path
       id="path14"
       d="m -0.56706,-51.02432 c 0,2.8179 -2.2843,5.1022 -5.10221,5.1022 -2.8179,0 -5.1022,-2.2843 -5.1022,-5.1022 0,-2.8179 2.2843,-5.10221 5.1022,-5.10221 2.81791,0 5.10221,2.28431 5.10221,5.10221 z"
       style="fill:#b9d7d4;fill-opacity:1;fill-rule:nonzero;stroke:#385986;stroke-width:0.49814;stroke-linecap:butt;stroke-linejoin:miter;stroke-miterlimit:10;stroke-dasharray:none;stroke-opacity:1"
       transform="matrix(1.3333333,0,0,-1.3333333,226.772,226.77067)" />
    <g
       id="g14"
       aria-label="CatalystPelletConcentrationa(z)"
       transform="matrix(1.3333333,0,0,1.3333333,84.492,382.73467)">
      <path
         id="path15"
         d="m 9.3517031,-9.7736563 c 0,-0.2578127 0,-0.3281247 -0.140625,-0.3281247 -0.09375,0 -0.1054687,0.03516 -0.1875,0.175781 l -0.703125,1.1367187 C 7.6759219,-9.597875 6.7032656,-10.101781 5.6602969,-10.101781 c -2.625,0 -4.88671877,2.2734372 -4.88671877,5.191406 0,2.9765625 2.29687497,5.21484375 4.88671877,5.21484375 2.3554687,0 3.6914062,-2.05078125 3.6914062,-3.63281255 0,-0.1523437 0,-0.2460937 -0.1523437,-0.2460937 -0.1523438,0 -0.1640625,0.070312 -0.1640625,0.1757812 -0.1289063,2.2851563 -1.7929688,3.28125005 -3.1875,3.28125005 -0.9960938,0 -3.7382813,-0.59765625 -3.7382813,-4.79296875 0,-4.1367188 2.6953125,-4.7695313 3.7265625,-4.7695313 1.5117188,0 2.8242188,1.2773438 3.1171875,3.421875 0.023437,0.1757813 0.023437,0.2226563 0.1992188,0.2226563 0.1992187,0 0.1992187,-0.046875 0.1992187,-0.328125 z M 15.676898,-3.83225 c 0,-0.7734375 0,-1.3476563 -0.621093,-1.9101563 -0.503907,-0.4570312 -1.148438,-0.65625 -1.78125,-0.65625 -1.183594,0 -2.085938,0.7734375 -2.085938,1.7109375 0,0.4101563 0.28125,0.609375 0.609375,0.609375 0.339844,0 0.585938,-0.234375 0.585938,-0.5859375 0,-0.5859375 -0.515625,-0.5859375 -0.726563,-0.5859375 0.328125,-0.5976562 1.007813,-0.8554687 1.582031,-0.8554687 0.667969,0 1.511719,0.5390625 1.511719,1.828125 v 0.5742187 c -2.882812,0.046875 -3.972656,1.2539063 -3.972656,2.3554688 0,1.13671875 1.3125,1.48828125 2.191406,1.48828125 0.949219,0 1.59375,-0.57421875 1.863281,-1.25390625 0.05859,0.66796875 0.503907,1.18359375 1.125,1.18359375 0.292969,0 1.125,-0.19921875 1.125,-1.34765625 v -0.796875 h -0.316406 v 0.796875 c 0,0.8203125 -0.339844,0.9375 -0.539062,0.9375 -0.550782,0 -0.550782,-0.7617188 -0.550782,-0.984375 z m -0.925781,1.8046875 c 0,1.40625 -1.042969,1.88671875 -1.664062,1.88671875 -0.703125,0 -1.289063,-0.515625 -1.289063,-1.20703125 0,-1.8984375 2.4375,-2.0625 2.953125,-2.0976563 z m 4.831055,-3.7382813 h 2.015625 v -0.421875 h -2.015625 v -2.6367187 h -0.316406 c -0.02344,1.3476562 -0.539063,2.7304687 -1.839844,2.765625 v 0.2929687 h 1.21875 v 3.984375 c 0,1.59375005 1.066406,1.92187505 1.828125,1.92187505 0.902344,0 1.371094,-0.890625 1.371094,-1.92187505 v -0.8203125 h -0.316407 v 0.796875 c 0,1.03125005 -0.410156,1.6289063 -0.972656,1.6289063 -0.972656,0 -0.972656,-1.3359375 -0.972656,-1.5703125 z m 8.581055,1.9335938 c 0,-0.7734375 0,-1.3476563 -0.621094,-1.9101563 -0.503906,-0.4570312 -1.148438,-0.65625 -1.78125,-0.65625 -1.183594,0 -2.085938,0.7734375 -2.085938,1.7109375 0,0.4101563 0.28125,0.609375 0.609375,0.609375 0.339844,0 0.585938,-0.234375 0.585938,-0.5859375 0,-0.5859375 -0.515625,-0.5859375 -0.726563,-0.5859375 0.328125,-0.5976562 1.007813,-0.8554687 1.582032,-0.8554687 0.667968,0 1.511718,0.5390625 1.511718,1.828125 v 0.5742187 c -2.882812,0.046875 -3.972656,1.2539063 -3.972656,2.3554688 0,1.13671875 1.3125,1.48828125 2.191406,1.48828125 0.949219,0 1.59375,-0.57421875 1.863282,-1.25390625 0.05859,0.66796875 0.503906,1.18359375 1.125,1.18359375 0.292968,0 1.125,-0.19921875 1.125,-1.34765625 v -0.796875 H 29.25307 v 0.796875 c 0,0.8203125 -0.339843,0.9375 -0.539062,0.9375 -0.550781,0 -0.550781,-0.7617188 -0.550781,-0.984375 z m -0.925782,1.8046875 c 0,1.40625 -1.042968,1.88671875 -1.664062,1.88671875 -0.703125,0 -1.289063,-0.515625 -1.289063,-1.20703125 0,-1.8984375 2.4375,-2.0625 2.953125,-2.0976563 z m 4.892578,-7.921875 -2.003906,0.1523437 v 0.421875 c 0.984375,0 1.089844,0.09375 1.089844,0.796875 v 7.5117188 c 0,0.65625 -0.152344,0.65625 -1.089844,0.65625 v 0.41015625 c 0.410156,-0.0234375 1.113281,-0.0234375 1.535156,-0.0234375 0.433594,0 1.148438,0 1.558594,0.0234375 V -0.410375 c -0.925781,0 -1.089844,0 -1.089844,-0.65625 z m 7.242188,5.15625 c 0.386719,-0.9609375 1.054687,-0.9726563 1.335937,-0.9726563 v -0.421875 c -0.421875,0.035156 -0.621093,0.035156 -1.078125,0.035156 -0.328125,0 -0.363281,0 -1.160156,-0.035156 v 0.421875 c 0.527344,0.023437 0.65625,0.3632813 0.65625,0.6210938 0,0.1289062 -0.03516,0.1992187 -0.08203,0.3398437 l -1.464844,3.609375 -1.59375,-3.9023437 c -0.08203,-0.1992188 -0.08203,-0.28125 -0.08203,-0.2929688 0,-0.375 0.492187,-0.375 0.785156,-0.375 v -0.421875 c -0.375,0.035156 -1.078125,0.035156 -1.476562,0.035156 -0.550782,0 -0.574219,0 -1.394532,-0.035156 v 0.421875 c 0.832032,0 0.949219,0.070312 1.136719,0.515625 l 2.132813,5.25000005 C 36.454242,1.5232187 36.454242,1.5466562 36.395648,1.6638437 36.161273,2.0974375 35.762836,2.6365 35.118305,2.6365 c -0.445313,0 -0.714844,-0.2578125 -0.714844,-0.2578125 0,0 0.503906,-0.058594 0.503906,-0.5625 0,-0.3398438 -0.269531,-0.5273438 -0.527344,-0.5273438 -0.246093,0 -0.550781,0.140625 -0.550781,0.5625 0,0.5390625 0.539063,1.078125 1.289063,1.078125 0.808593,0 1.394531,-0.703125 1.769531,-1.6054687 z m 6.298828,-1.2773438 c 0,-0.2578125 0,-0.328125 -0.140625,-0.328125 -0.117187,0 -0.386719,0.3164063 -0.480469,0.4453125 -0.445312,-0.3632812 -0.890625,-0.4453125 -1.347656,-0.4453125 -1.746094,0 -2.261719,0.9492188 -2.261719,1.734375 0,0.1640625 0,0.6679688 0.550782,1.1601563 0.457031,0.4101562 0.949218,0.5039062 1.605468,0.6328125 0.785157,0.1640625 0.972657,0.1992187 1.335938,0.4921875 0.257812,0.2109375 0.445312,0.5273437 0.445312,0.9257812 0,0.6210938 -0.363281,1.31250005 -1.628906,1.31250005 -0.9375,0 -1.628906,-0.55078125 -1.945312,-1.98046875 -0.05859,-0.2578125 -0.05859,-0.2695313 -0.07031,-0.2929688 -0.03516,-0.058594 -0.08203,-0.058594 -0.128906,-0.058594 -0.164063,0 -0.164063,0.082031 -0.164063,0.3398437 v 1.94531255 c 0,0.2578125 0,0.328125 0.152344,0.328125 0.07031,0 0.08203,-0.0117188 0.328125,-0.31640625 0.07031,-0.09375 0.07031,-0.12890625 0.28125,-0.3515625 0.550781,0.66796875 1.324219,0.66796875 1.570313,0.66796875 1.5,0 2.25,-0.83203125 2.25,-1.95703125 0,-0.7851563 -0.480469,-1.2421875 -0.609375,-1.3710938 -0.515625,-0.4453125 -0.902344,-0.5273437 -1.839844,-0.703125 -0.433594,-0.082031 -1.488281,-0.28125 -1.488281,-1.1484375 0,-0.4453125 0.304687,-1.1015625 1.59375,-1.1015625 1.570312,0 1.652343,1.3359375 1.6875,1.78125 0.01172,0.1171875 0.105468,0.1171875 0.152343,0.1171875 0.152344,0 0.152344,-0.070312 0.152344,-0.328125 z m 3.254883,0.3046875 h 2.015625 v -0.421875 h -2.015625 v -2.6367187 h -0.316406 c -0.02344,1.3476562 -0.539063,2.7304687 -1.839844,2.765625 v 0.2929687 h 1.21875 v 3.984375 c 0,1.59375005 1.066406,1.92187505 1.828125,1.92187505 0.902344,0 1.371094,-0.890625 1.371094,-1.92187505 v -0.8203125 h -0.316407 v 0.796875 c 0,1.03125005 -0.410156,1.6289063 -0.972656,1.6289063 -0.972656,0 -0.972656,-1.3359375 -0.972656,-1.5703125 z m 10.857422,1.2070313 h 2.425781 c 1.675781,0 3.210938,-1.1367188 3.210938,-2.5898438 0,-1.3828125 -1.394532,-2.6484375 -3.328125,-2.6484375 h -4.839844 v 0.421875 h 0.292969 c 1.03125,0 1.078125,0.140625 1.078125,0.6679688 v 7.6171875 c 0,0.52734375 -0.04687,0.6796875 -1.078125,0.6796875 h -0.292969 v 0.41015625 c 0.351562,-0.0234375 1.523437,-0.0234375 1.945312,-0.0234375 0.421875,0 1.605469,0 1.945313,0.0234375 V -0.410375 h -0.28125 c -1.03125,0 -1.078125,-0.15234375 -1.078125,-0.6796875 z m -0.03516,-0.3515625 v -3.9023438 c 0,-0.46875 0.03516,-0.5625 0.667968,-0.5625 h 1.347657 c 2.320312,0 2.320312,1.6171875 2.320312,2.2265625 0,0.609375 0,2.2382813 -2.332031,2.2382813 z m 11.572265,1.5820312 c 0.316406,0 0.339844,0 0.339844,-0.2695312 0,-1.453125 -0.773438,-2.8007813 -2.507813,-2.8007813 -1.640625,0 -2.894531,1.4765625 -2.894531,3.2578125 0,1.8984375 1.464844,3.28125005 3.046875,3.28125005 1.710938,0 2.355469,-1.54687505 2.355469,-1.85156255 0,-0.082031 -0.07031,-0.140625 -0.152344,-0.140625 -0.117187,0 -0.152344,0.070312 -0.175781,0.140625 -0.375,1.2070313 -1.335938,1.5351563 -1.933594,1.5351563 -0.609375,0 -2.050781,-0.3984375 -2.050781,-2.8828125 V -3.3283438 Z M 67.359516,-3.597875 c 0.117187,-2.25 1.371093,-2.5078125 1.78125,-2.5078125 1.535156,0 1.617187,2.015625 1.628906,2.5078125 z m 7.180664,-6.3515625 -2.003907,0.1523437 v 0.421875 c 0.984375,0 1.089844,0.09375 1.089844,0.796875 v 7.5117188 c 0,0.65625 -0.152344,0.65625 -1.089844,0.65625 v 0.41015625 c 0.410157,-0.0234375 1.113282,-0.0234375 1.535157,-0.0234375 0.433593,0 1.148437,0 1.558593,0.0234375 V -0.410375 c -0.925781,0 -1.089843,0 -1.089843,-0.65625 z m 3.902343,0 -2.003906,0.1523437 v 0.421875 c 0.984375,0 1.089844,0.09375 1.089844,0.796875 v 7.5117188 c 0,0.65625 -0.152344,0.65625 -1.089844,0.65625 v 0.41015625 c 0.410156,-0.0234375 1.113281,-0.0234375 1.535156,-0.0234375 0.433594,0 1.148438,0 1.558594,0.0234375 V -0.410375 c -0.925781,0 -1.089844,0 -1.089844,-0.65625 z m 6.925782,6.6210937 c 0.316406,0 0.339843,0 0.339843,-0.2695312 0,-1.453125 -0.773437,-2.8007813 -2.507812,-2.8007813 -1.640625,0 -2.894531,1.4765625 -2.894531,3.2578125 0,1.8984375 1.464843,3.28125005 3.046875,3.28125005 1.710937,0 2.355468,-1.54687505 2.355468,-1.85156255 0,-0.082031 -0.07031,-0.140625 -0.152343,-0.140625 -0.117188,0 -0.152344,0.070312 -0.175782,0.140625 -0.375,1.2070313 -1.335937,1.5351563 -1.933593,1.5351563 -0.609375,0 -2.050782,-0.3984375 -2.050782,-2.8828125 V -3.3283438 Z M 81.407367,-3.597875 c 0.117188,-2.25 1.371094,-2.5078125 1.78125,-2.5078125 1.535156,0 1.617188,2.015625 1.628906,2.5078125 z m 7.122071,-2.1679688 h 2.015625 v -0.421875 h -2.015625 v -2.6367187 h -0.316407 c -0.02344,1.3476562 -0.539062,2.7304687 -1.839843,2.765625 v 0.2929687 h 1.21875 v 3.984375 c 0,1.59375005 1.066406,1.92187505 1.828125,1.92187505 0.902343,0 1.371093,-0.890625 1.371093,-1.92187505 V -2.6017813 H 90.47475 v 0.796875 c 0,1.03125005 -0.410156,1.6289063 -0.972656,1.6289063 -0.972656,0 -0.972656,-1.3359375 -0.972656,-1.5703125 z m 17.077152,-4.0078125 c 0,-0.2578127 0,-0.3281247 -0.14063,-0.3281247 -0.0937,0 -0.10547,0.03516 -0.1875,0.175781 l -0.70312,1.1367187 c -0.64454,-0.8085937 -1.61719,-1.3124997 -2.66016,-1.3124997 -2.625,0 -4.886719,2.2734372 -4.886719,5.191406 0,2.9765625 2.296875,5.21484375 4.886719,5.21484375 2.35547,0 3.69141,-2.05078125 3.69141,-3.63281255 0,-0.1523437 0,-0.2460937 -0.15235,-0.2460937 -0.15234,0 -0.16406,0.070312 -0.16406,0.1757812 -0.12891,2.2851563 -1.79297,3.28125005 -3.1875,3.28125005 -0.99609,0 -3.738282,-0.59765625 -3.738282,-4.79296875 0,-4.1367188 2.695312,-4.7695313 3.726562,-4.7695313 1.51172,0 2.82422,1.2773438 3.11719,3.421875 0.0234,0.1757813 0.0234,0.2226563 0.19922,0.2226563 0.19922,0 0.19922,-0.046875 0.19922,-0.328125 z m 7.37988,6.703125 c 0,-1.8515625 -1.40625,-3.328125 -3.07031,-3.328125 -1.72266,0 -3.08203,1.5234375 -3.08203,3.328125 0,1.8398438 1.42968,3.21093755 3.07031,3.21093755 1.6875,0 3.08203,-1.40625005 3.08203,-3.21093755 z M 109.91616,-0.176 c -0.52735,0 -1.17188,-0.22265625 -1.59375,-0.9257813 -0.38672,-0.6445312 -0.39844,-1.5 -0.39844,-2.0976562 0,-0.5390625 0,-1.4179688 0.44531,-2.0625 0.39844,-0.6210938 1.03125,-0.84375 1.53516,-0.84375 0.55078,0 1.16015,0.2578125 1.54687,0.8085937 0.44532,0.6679688 0.44532,1.5703125 0.44532,2.0976563 0,0.5039062 0,1.3945312 -0.375,2.0625 -0.39844,0.69140625 -1.06641,0.9609375 -1.60547,0.9609375 z m 9.89355,-3.3046875 c 0,-1.3359375 0,-1.7460938 -0.32812,-2.203125 -0.42188,-0.5507813 -1.08985,-0.6445313 -1.58204,-0.6445313 -1.39453,0 -1.93359,1.1953125 -2.05078,1.4765625 h -0.0117 v -1.4765625 l -1.95703,0.1640625 v 0.4101563 c 0.97266,0 1.08985,0.1054687 1.08985,0.8085937 v 3.8789063 c 0,0.65625 -0.15235,0.65625 -1.08985,0.65625 v 0.41015625 c 0.375,-0.0234375 1.14844,-0.0234375 1.54688,-0.0234375 0.42187,0 1.19531,0 1.57031,0.0234375 V -0.410375 c -0.92578,0 -1.08984,0 -1.08984,-0.65625 v -2.6601563 c 0,-1.5117187 0.98437,-2.3085937 1.875,-2.3085937 0.89062,0 1.08984,0.7265625 1.08984,1.6054687 v 3.3632813 c 0,0.65625 -0.15234,0.65625 -1.08984,0.65625 v 0.41015625 c 0.375,-0.0234375 1.14843,-0.0234375 1.54687,-0.0234375 0.42188,0 1.19531,0 1.57031,0.0234375 V -0.410375 c -0.71484,0 -1.07812,0 -1.08984,-0.43359375 z m 6.60938,-1.828125 c -0.17579,0 -0.70313,0 -0.70313,0.5859375 0,0.3515625 0.24609,0.5859375 0.58594,0.5859375 0.32812,0 0.60937,-0.1992188 0.60937,-0.609375 0,-0.9609375 -1.00781,-1.6523438 -2.16797,-1.6523438 -1.67578,0 -3.01171,1.4882813 -3.01171,3.3046875 0,1.828125 1.37109,3.23437505 3,3.23437505 1.88671,0 2.32031,-1.72265625 2.32031,-1.85156255 0,-0.1289062 -0.10547,-0.1289062 -0.14063,-0.1289062 -0.1289,0 -0.15234,0.046875 -0.1875,0.2226562 -0.3164,1.0195313 -1.08984,1.4414063 -1.86328,1.4414063 -0.8789,0 -2.03906,-0.76171875 -2.03906,-2.9414063 0,-2.3789062 1.21875,-2.9648437 1.93359,-2.9648437 0.55078,0 1.33594,0.2109375 1.66407,0.7734375 z m 6.54785,1.9804687 c 0.3164,0 0.33984,0 0.33984,-0.2695312 0,-1.453125 -0.77344,-2.8007813 -2.50781,-2.8007813 -1.64063,0 -2.89453,1.4765625 -2.89453,3.2578125 0,1.8984375 1.46484,3.28125005 3.04687,3.28125005 1.71094,0 2.35547,-1.54687505 2.35547,-1.85156255 0,-0.082031 -0.0703,-0.140625 -0.15234,-0.140625 -0.11719,0 -0.15235,0.070312 -0.17578,0.140625 -0.375,1.2070313 -1.33594,1.5351563 -1.9336,1.5351563 -0.60937,0 -2.05078,-0.3984375 -2.05078,-2.8828125 V -3.3283438 Z M 129.006,-3.597875 c 0.11719,-2.25 1.37109,-2.5078125 1.78125,-2.5078125 1.53516,0 1.61719,2.015625 1.62891,2.5078125 z m 11.09473,0.1171875 c 0,-1.3359375 0,-1.7460938 -0.32813,-2.203125 -0.42187,-0.5507813 -1.08984,-0.6445313 -1.58203,-0.6445313 -1.39453,0 -1.93359,1.1953125 -2.05078,1.4765625 h -0.0117 v -1.4765625 l -1.95703,0.1640625 v 0.4101563 c 0.97266,0 1.08984,0.1054687 1.08984,0.8085937 v 3.8789063 c 0,0.65625 -0.15234,0.65625 -1.08984,0.65625 v 0.41015625 c 0.375,-0.0234375 1.14844,-0.0234375 1.54687,-0.0234375 0.42188,0 1.19532,0 1.57032,0.0234375 V -0.410375 c -0.92578,0 -1.08985,0 -1.08985,-0.65625 v -2.6601563 c 0,-1.5117187 0.98438,-2.3085937 1.875,-2.3085937 0.89063,0 1.08985,0.7265625 1.08985,1.6054687 v 3.3632813 c 0,0.65625 -0.15235,0.65625 -1.08985,0.65625 v 0.41015625 c 0.375,-0.0234375 1.14844,-0.0234375 1.54688,-0.0234375 0.42187,0 1.19531,0 1.57031,0.0234375 V -0.410375 c -0.71484,0 -1.07812,0 -1.08984,-0.43359375 z m 3.44531,-2.2851563 h 2.01562 v -0.421875 h -2.01562 v -2.6367187 h -0.31641 c -0.0234,1.3476562 -0.53906,2.7304687 -1.83984,2.765625 v 0.2929687 h 1.21875 v 3.984375 c 0,1.59375005 1.06641,1.92187505 1.82812,1.92187505 0.90235,0 1.3711,-0.890625 1.3711,-1.92187505 v -0.8203125 h -0.31641 v 0.796875 c 0,1.03125005 -0.41015,1.6289063 -0.97265,1.6289063 -0.97266,0 -0.97266,-1.3359375 -0.97266,-1.5703125 z m 5.44043,2.4257813 c 0,-1.3945313 0.57422,-2.6953125 1.6875,-2.6953125 0.10547,0 0.14062,0 0.19922,0.011719 -0.11719,0.058594 -0.35156,0.140625 -0.35156,0.5273438 0,0.421875 0.33984,0.5742187 0.5625,0.5742187 0.29296,0 0.57421,-0.1875 0.57421,-0.5742187 0,-0.4335938 -0.38671,-0.8320313 -1.00781,-0.8320313 -1.21875,0 -1.6289,1.3242188 -1.71094,1.59375 h -0.0234 v -1.59375 l -1.92188,0.1640625 v 0.4101563 c 0.98438,0 1.08985,0.1054687 1.08985,0.8085937 v 3.8789063 c 0,0.65625 -0.15235,0.65625 -1.08985,0.65625 v 0.41015625 c 0.41016,-0.0234375 1.19531,-0.0234375 1.62891,-0.0234375 0.38672,0 1.40625,0 1.73437,0.0234375 V -0.410375 h -0.29297 c -1.04296,0 -1.07812,-0.1640625 -1.07812,-0.6796875 z m 8.60156,-0.4921875 c 0,-0.7734375 0,-1.3476563 -0.62109,-1.9101563 -0.50391,-0.4570312 -1.14844,-0.65625 -1.78125,-0.65625 -1.1836,0 -2.08594,0.7734375 -2.08594,1.7109375 0,0.4101563 0.28125,0.609375 0.60938,0.609375 0.33984,0 0.58593,-0.234375 0.58593,-0.5859375 0,-0.5859375 -0.51562,-0.5859375 -0.72656,-0.5859375 0.32813,-0.5976562 1.00781,-0.8554687 1.58203,-0.8554687 0.66797,0 1.51172,0.5390625 1.51172,1.828125 v 0.5742187 c -2.88281,0.046875 -3.97266,1.2539063 -3.97266,2.3554688 0,1.13671875 1.3125,1.48828125 2.19141,1.48828125 0.94922,0 1.59375,-0.57421875 1.86328,-1.25390625 0.0586,0.66796875 0.50391,1.18359375 1.125,1.18359375 0.29297,0 1.125,-0.19921875 1.125,-1.34765625 v -0.796875 h -0.3164 v 0.796875 c 0,0.8203125 -0.33985,0.9375 -0.53907,0.9375 -0.55078,0 -0.55078,-0.7617188 -0.55078,-0.984375 z m -0.92578,1.8046875 c 0,1.40625 -1.04297,1.88671875 -1.66406,1.88671875 -0.70313,0 -1.28906,-0.515625 -1.28906,-1.20703125 0,-1.8984375 2.4375,-2.0625 2.95312,-2.0976563 z m 4.83398,-3.7382813 h 2.01563 v -0.421875 h -2.01563 v -2.6367187 h -0.3164 c -0.0234,1.3476562 -0.53906,2.7304687 -1.83985,2.765625 v 0.2929687 h 1.21875 v 3.984375 c 0,1.59375005 1.06641,1.92187505 1.82813,1.92187505 0.90234,0 1.37109,-0.890625 1.37109,-1.92187505 v -0.8203125 h -0.3164 v 0.796875 c 0,1.03125005 -0.41016,1.6289063 -0.97266,1.6289063 -0.97266,0 -0.97266,-1.3359375 -0.97266,-1.5703125 z m 5.5459,-3.0703125 c 0,-0.375 -0.30468,-0.703125 -0.70312,-0.703125 -0.375,0 -0.69141,0.3046875 -0.69141,0.6914063 0,0.4335937 0.35156,0.703125 0.69141,0.703125 0.44531,0 0.70312,-0.375 0.70312,-0.6914063 z m -1.98047,2.671875 v 0.4101563 c 0.91407,0 1.04297,0.09375 1.04297,0.7851562 v 3.9023438 c 0,0.65625 -0.15234,0.65625 -1.08984,0.65625 v 0.41015625 c 0.41016,-0.0234375 1.08984,-0.0234375 1.51172,-0.0234375 0.15234,0 0.98437,0 1.47656,0.0234375 V -0.410375 c -0.9375,0 -0.98437,-0.0820313 -0.98437,-0.6328125 v -5.2851563 z m 9.97266,3.09375 c 0,-1.8515625 -1.40625,-3.328125 -3.07031,-3.328125 -1.72266,0 -3.08203,1.5234375 -3.08203,3.328125 0,1.8398438 1.42968,3.21093755 3.07031,3.21093755 1.6875,0 3.08203,-1.40625005 3.08203,-3.21093755 z M 171.96401,-0.176 c -0.52735,0 -1.17188,-0.22265625 -1.59375,-0.9257813 -0.38672,-0.6445312 -0.39844,-1.5 -0.39844,-2.0976562 0,-0.5390625 0,-1.4179688 0.44531,-2.0625 0.39844,-0.6210938 1.03125,-0.84375 1.53516,-0.84375 0.55078,0 1.16016,0.2578125 1.54687,0.8085937 0.44532,0.6679688 0.44532,1.5703125 0.44532,2.0976563 0,0.5039062 0,1.3945312 -0.375,2.0625 -0.39844,0.69140625 -1.06641,0.9609375 -1.60547,0.9609375 z m 9.89355,-3.3046875 c 0,-1.3359375 0,-1.7460938 -0.32812,-2.203125 -0.42188,-0.5507813 -1.08985,-0.6445313 -1.58203,-0.6445313 -1.39453,0 -1.9336,1.1953125 -2.05078,1.4765625 h -0.0117 v -1.4765625 l -1.95703,0.1640625 v 0.4101563 c 0.97265,0 1.08984,0.1054687 1.08984,0.8085937 v 3.8789063 c 0,0.65625 -0.15234,0.65625 -1.08984,0.65625 v 0.41015625 c 0.375,-0.0234375 1.14843,-0.0234375 1.54687,-0.0234375 0.42188,0 1.19531,0 1.57031,0.0234375 V -0.410375 c -0.92578,0 -1.08984,0 -1.08984,-0.65625 v -2.6601563 c 0,-1.5117187 0.98437,-2.3085937 1.875,-2.3085937 0.89062,0 1.08984,0.7265625 1.08984,1.6054687 v 3.3632813 c 0,0.65625 -0.15234,0.65625 -1.08984,0.65625 v 0.41015625 c 0.375,-0.0234375 1.14844,-0.0234375 1.54687,-0.0234375 0.42188,0 1.19532,0 1.57032,0.0234375 V -0.410375 c -0.71485,0 -1.07813,0 -1.08985,-0.43359375 z m 0,0"
         style="fill:#000000;fill-opacity:1;fill-rule:nonzero;stroke:none" />
      <path
         id="path16"
         d="m 192.26967,-1.7111563 c -0.0703,0.2460938 -0.0703,0.28125 -0.26953,0.5507813 -0.31641,0.3984375 -0.94922,1.01953125 -1.61719,1.01953125 -0.58593,0 -0.91406,-0.5390625 -0.91406,-1.38281255 0,-0.7851562 0.43359,-2.390625 0.71484,-3 0.48047,-0.9960937 1.16016,-1.5117187 1.72266,-1.5117187 0.9375,0 1.125,1.171875 1.125,1.2890625 0,0.011719 -0.0352,0.1992187 -0.0586,0.2226562 z m 0.92578,-3.6679687 c -0.16406,-0.375 -0.55078,-0.9492188 -1.28906,-0.9492188 -1.62891,0 -3.375,2.0976563 -3.375,4.21875 0,1.4179688 0.83203,2.25000005 1.80469,2.25000005 0.79687,0 1.46484,-0.609375 1.86328,-1.08984375 0.15234,0.84375 0.82031,1.08984375 1.25391,1.08984375 0.43359,0 0.77343,-0.2578125 1.03125,-0.7734375 0.23437,-0.48046875 0.43359,-1.35937505 0.43359,-1.41796875 0,-0.070312 -0.0586,-0.1289063 -0.15234,-0.1289063 -0.12891,0 -0.14063,0.070312 -0.19922,0.28125 -0.21094,0.8554688 -0.48047,1.75781255 -1.07813,1.75781255 -0.41015,0 -0.43359,-0.375 -0.43359,-0.66796875 0,-0.328125 0.0351,-0.4804688 0.16406,-1.0429688 0.10547,-0.3515625 0.17578,-0.6679687 0.29297,-1.0898437 0.52734,-2.15625 0.65625,-2.671875 0.65625,-2.7539063 0,-0.1992187 -0.15234,-0.3632812 -0.375,-0.3632812 -0.45703,0 -0.57422,0.5039062 -0.59766,0.6796875 z m 0,0"
         style="fill:#000000;fill-opacity:1;fill-rule:nonzero;stroke:none" />
      <path
         id="path17"
         d="m 199.99526,3.48025 c 0,-0.035156 0,-0.070312 -0.2461,-0.3046875 -1.42968,-1.453125 -2.23828,-3.8203125 -2.23828,-6.75 0,-2.7773438 0.67969,-5.1796875 2.34375,-6.8671875 0.14063,-0.128906 0.14063,-0.164063 0.14063,-0.199219 0,-0.09375 -0.0703,-0.117187 -0.12891,-0.117187 -0.1875,0 -1.35937,1.0312497 -2.0625,2.4374997 -0.73828,1.453125 -1.0664,2.9882813 -1.0664,4.7460938 0,1.2773437 0.19921,2.98828125 0.94921,4.5234375 0.84375,1.7226562 2.01563,2.6484375 2.17969,2.6484375 0.0586,0 0.12891,-0.023437 0.12891,-0.1171875 z m 0,0"
         style="fill:#000000;fill-opacity:1;fill-rule:nonzero;stroke:none" />
      <path
         id="path18"
         d="m 202.60854,-1.160375 c 0.62109,-0.703125 1.125,-1.1484375 1.83984,-1.7929688 0.86719,-0.75 1.23047,-1.1015625 1.44141,-1.3242187 0.99609,-0.984375 1.5,-1.8164063 1.5,-1.9335938 0,-0.1171875 -0.11719,-0.1171875 -0.14063,-0.1171875 -0.10546,0 -0.1289,0.058594 -0.19921,0.1640625 -0.36329,0.609375 -0.70313,0.9140625 -1.07813,0.9140625 -0.30469,0 -0.45703,-0.1289062 -0.73828,-0.46875 -0.29297,-0.3632812 -0.53906,-0.609375 -0.96094,-0.609375 -1.04297,0 -1.67578,1.3125 -1.67578,1.6054688 0,0.046875 0.0117,0.1289062 0.14063,0.1289062 0.11718,0 0.1289,-0.058594 0.17578,-0.1523437 0.24609,-0.5742188 0.9375,-0.6796875 1.20703,-0.6796875 0.30469,0 0.58594,0.1054687 0.89062,0.234375 0.53907,0.2226562 0.77344,0.2226562 0.91407,0.2226562 0.10546,0 0.16406,0 0.23437,-0.011719 -0.48047,0.5625 -1.25391,1.2539062 -1.89844,1.8398437 l -1.4414,1.3359375 c -0.87891,0.89062505 -1.40625,1.73437505 -1.40625,1.82812505 0,0.09375 0.0703,0.1171875 0.15234,0.1171875 0.082,0 0.10547,-0.0117188 0.19922,-0.1875 0.23437,-0.3515625 0.69141,-0.890625 1.21875,-0.890625 0.30469,0 0.44531,0.10546875 0.73828,0.46875 0.26953,0.31640625 0.51563,0.609375 0.97266,0.609375 1.40625,0 2.20312,-1.81640625 2.20312,-2.14453125 0,-0.058594 -0.0117,-0.1523438 -0.15234,-0.1523438 -0.11719,0 -0.12891,0.058594 -0.17578,0.2109375 -0.31641,0.84375 -1.16016,1.1835938 -1.72266,1.1835938 -0.29297,0 -0.58594,-0.09375 -0.87891,-0.22265625 -0.57421,-0.23437505 -0.73828,-0.23437505 -0.92578,-0.23437505 -0.14062,0 -0.30468,0 -0.43359,0.058594 z m 0,0"
         style="fill:#000000;fill-opacity:1;fill-rule:nonzero;stroke:none" />
      <path
         id="path19"
         d="m 212.00112,-3.5744375 c 0,-1.0898438 -0.14063,-2.8710938 -0.94922,-4.5351563 -0.84375,-1.7109375 -2.01563,-2.6484372 -2.17969,-2.6484372 -0.0586,0 -0.12891,0.02344 -0.12891,0.117187 0,0.03516 0,0.07031 0.2461,0.316406 1.4414,1.4414067 2.23828,3.8085942 2.23828,6.7382817 0,2.7773438 -0.66797,5.1796875 -2.33203,6.8671875 -0.15235,0.1289063 -0.15235,0.1640625 -0.15235,0.1992188 0,0.09375 0.0703,0.1171875 0.12891,0.1171875 0.1875,0 1.37109,-1.03125 2.07422,-2.4375 0.72656,-1.46484375 1.05469,-3.0117188 1.05469,-4.734375 z m 0,0"
         style="fill:#000000;fill-opacity:1;fill-rule:nonzero;stroke:none" />
    </g>
    <path
       id="path20"
       d="m -141.73404,0 h 38.26837"
       style="fill:none;stroke:#224678;stroke-width:1.0959;stroke-linecap:butt;stroke-linejoin:miter;stroke-miterlimit:10;stroke-dasharray:none;stroke-opacity:1"
       transform="matrix(1.3333333,0,0,-1.3333333,226.772,226.77067)" />
    <path
       id="path21"
       d="m -141.73404,0 h 31.29444"
       style="fill:none;stroke:#63a69f;stroke-width:0.99628;stroke-linecap:butt;stroke-linejoin:miter;stroke-miterlimit:10;stroke-dasharray:none;stroke-opacity:1"
       transform="matrix(1.3333333,0,0,-1.3333333,226.772,226.77067)" />
    <path
       id="path22"
       d="M 4.92007,0 C 4.31586,0.15076 1.65996,1.00505 0,1.93475 v -3.8695 C 1.65996,-1.00505 4.31586,-0.15076 4.92007,0 Z"
       style="fill:#63a69f;fill-opacity:1;fill-rule:nonzero;stroke:#63a69f;stroke-width:0.99628;stroke-linecap:butt;stroke-linejoin:miter;stroke-miterlimit:10;stroke-dasharray:none;stroke-opacity:1"
       transform="matrix(1.3333333,0,0,-1.3333333,79.5192,226.77067)" />
    <g
       id="g22"
       aria-label="CO&#10;+&#10;O&#10;2"
       transform="matrix(1.3333333,0,0,1.3333333,5.008,207.96133)">
      <path
         id="path23"
         d="m 9.3514219,-9.7737344 c 0,-0.2578126 0,-0.3281246 -0.140625,-0.3281246 -0.09375,0 -0.1054688,0.03516 -0.1875,0.1757809 l -0.703125,1.1367187 C 7.6756406,-9.5979531 6.7029844,-10.101859 5.6600156,-10.101859 c -2.625,0 -4.88671872,2.2734371 -4.88671872,5.1914059 0,2.9765625 2.29687502,5.21484372 4.88671872,5.21484372 2.3554688,0 3.6914063,-2.05078122 3.6914063,-3.63281252 0,-0.1523437 0,-0.2460937 -0.1523438,-0.2460937 -0.1523437,0 -0.1640625,0.070312 -0.1640625,0.1757812 -0.1289062,2.2851563 -1.7929687,3.28125002 -3.1875,3.28125002 -0.9960937,0 -3.7382812,-0.59765625 -3.7382812,-4.79296872 0,-4.1367188 2.6953125,-4.7695313 3.7265625,-4.7695313 1.5117187,0 2.8242187,1.2773438 3.1171875,3.421875 0.023437,0.1757813 0.023437,0.2226563 0.1992187,0.2226563 0.1992188,0 0.1992188,-0.046875 0.1992188,-0.328125 z m 10.9306641,4.9101563 c 0,-2.9648438 -2.179688,-5.2382809 -4.675781,-5.2382809 -2.554688,0 -4.6875,2.2968746 -4.6875,5.2382809 0,2.9179687 2.167968,5.16796872 4.675781,5.16796872 2.566406,0 4.6875,-2.28515622 4.6875,-5.16796872 z m -4.675781,4.83984372 c -1.464844,0 -3.351563,-1.38281252 -3.351563,-5.05078122 0,-3.515625 1.992188,-4.7109375 3.339844,-4.7109375 1.417969,0 3.363281,1.2304687 3.363281,4.7109375 0,3.7265625 -1.957031,5.05078122 -3.351562,5.05078122 z M 10.792828,14.615914 h 3.960938 c 0.199218,0 0.457031,0 0.457031,-0.257812 0,-0.269532 -0.234375,-0.269532 -0.457031,-0.269532 h -3.960938 v -3.960937 c 0,-0.1992189 0,-0.4570314 -0.257812,-0.4570314 -0.269532,0 -0.269532,0.2460937 -0.269532,0.4570314 V 14.08857 H 6.3045469 c -0.1992188,0 -0.4570313,0 -0.4570313,0.257813 0,0.269531 0.2460938,0.269531 0.4570313,0.269531 h 3.9609371 v 3.960938 c 0,0.199218 0,0.457031 0.257813,0.457031 0.269531,0 0.269531,-0.246094 0.269531,-0.457031 z m 0,0"
         style="fill:#000000;fill-opacity:1;fill-rule:nonzero;stroke:none" />
      <path
         id="path24"
         d="m 12.846539,29.583687 c 0,-2.367187 -1.558594,-3.820312 -3.5624999,-3.820312 -3.0703125,0 -6.1640625,3.304687 -6.1640625,6.621094 0,2.25 1.4882812,3.785156 3.5742187,3.785156 3.0117188,0 6.1523437,-3.140625 6.1523437,-6.585938 z M 6.7762266,35.8415 c -1.171875,0 -2.4257813,-0.867188 -2.4257813,-3.105469 0,-1.300781 0.46875,-3.445312 1.6523438,-4.875 1.0429687,-1.265625 2.25,-1.78125 3.2109375,-1.78125 1.2656254,0 2.4843754,0.925781 2.4843754,2.988281 0,1.277344 -0.550782,3.269532 -1.511719,4.628907 C 9.1434141,35.161812 7.8309141,35.8415 6.7762266,35.8415 Z m 0,0"
         style="fill:#000000;fill-opacity:1;fill-rule:nonzero;stroke:none" />
      <path
         id="path25"
         d="m 14.42857,37.256539 1.054688,-1.03125 c 1.558594,-1.371094 2.15625,-1.910156 2.15625,-2.90625 0,-1.136719 -0.902344,-1.933594 -2.121094,-1.933594 -1.125,0 -1.851562,0.914063 -1.851562,1.804688 0,0.550781 0.492187,0.550781 0.527343,0.550781 0.164063,0 0.515625,-0.117187 0.515625,-0.527344 0,-0.257812 -0.1875,-0.515625 -0.527343,-0.515625 -0.08203,0 -0.105469,0 -0.128907,0.01172 0.222657,-0.644531 0.761719,-1.019531 1.335938,-1.019531 0.914062,0 1.335937,0.808594 1.335937,1.628906 0,0.796875 -0.492187,1.582031 -1.042968,2.203125 l -1.910157,2.132813 c -0.105468,0.105468 -0.105468,0.128906 -0.105468,0.363281 h 3.691406 l 0.28125,-1.734375 h -0.257813 c -0.04687,0.304687 -0.117187,0.738281 -0.210937,0.890625 -0.07031,0.08203 -0.726563,0.08203 -0.949219,0.08203 z m 0,0"
         style="fill:#000000;fill-opacity:1;fill-rule:nonzero;stroke:none" />
    </g>
    <path
       id="path26"
       d="m 103.46567,0 h 38.26837"
       style="fill:none;stroke:#224678;stroke-width:1.0959;stroke-linecap:butt;stroke-linejoin:miter;stroke-miterlimit:10;stroke-dasharray:none;stroke-opacity:1"
       transform="matrix(1.3333333,0,0,-1.3333333,226.772,226.77067)" />
    <path
       id="path27"
       d="M 103.46567,0 H 134.7601"
       style="fill:none;stroke:#63a69f;stroke-width:0.99628;stroke-linecap:butt;stroke-linejoin:miter;stroke-miterlimit:10;stroke-dasharray:none;stroke-opacity:1"
       transform="matrix(1.3333333,0,0,-1.3333333,226.772,226.77067)" />
    <path
       id="path28"
       d="M 4.92007,0 C 4.31586,0.15076 1.65996,1.00505 0,1.93475 v -3.8695 C 1.65996,-1.00505 4.31586,-0.15076 4.92007,0 Z"
       style="fill:#63a69f;fill-opacity:1;fill-rule:nonzero;stroke:#63a69f;stroke-width:0.99628;stroke-linecap:butt;stroke-linejoin:miter;stroke-miterlimit:10;stroke-dasharray:none;stroke-opacity:1"
       transform="matrix(1.3333333,0,0,-1.3333333,406.45213,226.77067)" />
    <path
       id="path29"
       d="m 9.3516172,-9.7719922 c 0,-0.2578128 0,-0.3281248 -0.140625,-0.3281248 -0.09375,0 -0.1054688,0.03516 -0.1875,0.1757811 l -0.703125,1.1367187 C 7.6758359,-9.5962109 6.7031797,-10.100117 5.6602109,-10.100117 c -2.625,0 -4.88671871,2.2734373 -4.88671871,5.1914061 0,2.9765625 2.29687501,5.21484371 4.88671871,5.21484371 2.3554688,0 3.6914063,-2.05078121 3.6914063,-3.63281251 0,-0.1523437 0,-0.2460937 -0.1523438,-0.2460937 -0.1523437,0 -0.1640625,0.070312 -0.1640625,0.1757812 -0.1289062,2.2851563 -1.7929687,3.28125001 -3.1875,3.28125001 -0.9960937,0 -3.7382812,-0.59765625 -3.7382812,-4.79296871 0,-4.1367188 2.6953125,-4.7695313 3.7265625,-4.7695313 1.5117187,0 2.8242187,1.2773438 3.1171875,3.421875 0.023437,0.1757813 0.023437,0.2226563 0.1992187,0.2226563 0.1992188,0 0.1992188,-0.046875 0.1992188,-0.328125 z m 10.9306638,4.9101563 c 0,-2.9648438 -2.179687,-5.2382811 -4.675781,-5.2382811 -2.554688,0 -4.6875,2.2968748 -4.6875,5.2382811 0,2.9179687 2.167969,5.16796871 4.675781,5.16796871 2.566406,0 4.6875,-2.28515621 4.6875,-5.16796871 z M 15.6065,-0.02199219 c -1.464844,0 -3.351563,-1.38281251 -3.351563,-5.05078121 0,-3.515625 1.992188,-4.7109375 3.339844,-4.7109375 1.417969,0 3.363281,1.2304687 3.363281,4.7109375 0,3.7265625 -1.957031,5.05078121 -3.351562,5.05078121 z m 0,0"
       style="fill:#000000;fill-opacity:1;fill-rule:nonzero;stroke:none"
       aria-label="CO"
       transform="matrix(1.3333333,0,0,1.3333333,420.44133,233.30667)" />
    <path
       id="path30"
       d="m 0,70.867 c 0,0.49814 -0.69739,0.74721 -0.69739,1.24535 0,0.36065 0.34033,0.67149 0.69739,0.99628 0.35704,0.3248 0.69739,0.63563 0.69739,0.99627 0,0.36066 -0.34033,0.6715 -0.69739,0.99628 -0.35704,0.3248 -0.69739,0.63564 -0.69739,0.99628 0,0.36065 0.34033,0.67149 0.69739,0.99627 0.35704,0.3248 0.69739,0.63564 0.69739,0.99628 0,0.36066 -0.34033,0.67149 -0.69739,0.99628 -0.35704,0.3248 -0.69739,0.63563 -0.69739,0.99628 0,0.36065 0.34033,0.67149 0.69739,0.99627 0.35704,0.3248 0.69739,0.63564 0.69739,0.99628 0,0.36066 -0.34033,0.67149 -0.69739,0.99628 -0.35704,0.3248 -0.69739,0.63563 -0.69739,0.99627 0,0.36066 0.34033,0.6715 0.69739,0.99628 0.35704,0.3248 0.69739,0.63563 0.69739,0.99628 0,0.36065 -0.34033,0.67149 -0.69739,0.99627 -0.35704,0.3248 -0.69739,0.63564 -0.69739,0.99628 0,0.36066 0.34033,0.67149 0.69739,0.99628 0.35704,0.3248 0.69739,0.63564 0.69739,0.99627 0,0.36066 -0.34033,0.6715 -0.69739,0.99628 -0.35704,0.3248 -0.69739,0.63564 -0.69739,0.99628 0,0.36065 0.34033,0.67149 0.69739,0.99627 0.35704,0.3248 0.69739,0.63564 0.69739,0.99628 0,0.36066 -0.34033,0.67149 -0.69739,0.99628 -0.35704,0.3248 -0.69739,0.63563 -0.69739,0.99628 0,0.36065 0.34033,0.67149 0.69739,0.99627 0.35704,0.3248 0.69739,0.63563 0.69739,0.99628 0,0.36065 -0.34033,0.67149 -0.69739,0.99628 -0.35704,0.32479 -0.69739,0.63563 -0.69739,0.99627 0,0.36066 0.34033,0.6715 0.69739,0.99628 0.35704,0.3248 0.69739,0.63563 0.69739,0.99628 0,0.36065 -0.34033,0.67149 -0.69739,0.99627 -0.35704,0.3248 -0.69739,0.63564 -0.69739,0.99628 0,0.36066 0.34033,0.67149 0.69739,0.99628 0.35704,0.3248 0.69739,0.63563 0.69739,0.99627 0,0.36066 -0.34033,0.6715 -0.69739,0.99628 -0.35704,0.3248 -0.69739,0.63564 -0.69739,0.99628 0,0.49814 0.69739,0.7472 0.69739,1.24534 v -5.64479"
       style="fill:none;stroke:#d4b574;stroke-width:0.99628;stroke-linecap:butt;stroke-linejoin:miter;stroke-miterlimit:10;stroke-dasharray:none;stroke-opacity:1"
       transform="matrix(1.3333333,0,0,-1.3333333,226.772,226.77067)" />
    <path
       id="path31"
       d="M 4.92007,0 C 4.31586,0.15076 1.65996,1.00505 0,1.93475 v -3.8695 C 1.65996,-1.00505 4.31586,-0.15076 4.92007,0 Z"
       style="fill:#d4b574;fill-opacity:1;fill-rule:nonzero;stroke:#d4b574;stroke-width:0.99628;stroke-linecap:butt;stroke-linejoin:miter;stroke-miterlimit:10;stroke-dasharray:none;stroke-opacity:1"
       transform="matrix(0,-1.3333333,-1.3333333,0,226.772,88.665507)" />
    <path
       id="path32"
       d="m 13.911125,-15.164711 c 0,-1.125 0.269531,-1.125 1.980469,-1.125 v -0.644531 c -0.726563,0.05859 -2.039063,0.05859 -2.800781,0.05859 -0.773438,0 -2.085938,0 -2.800782,-0.05859 v 0.644531 c 1.710938,0 1.980469,0 1.980469,1.125 v 6.0468751 H 4.8876875 v -6.0468751 c 0,-1.125 0.2695313,-1.125 1.9804688,-1.125 v -0.644531 c -0.7148438,0.05859 -2.0390625,0.05859 -2.8007813,0.05859 -0.7734375,0 -2.0859375,0 -2.8007812,-0.05859 v 0.644531 c 1.7109375,0 1.9804687,0 1.9804687,1.125 v 13.4062501 c 0,1.11328121 -0.2695312,1.11328121 -1.9804687,1.11328121 V -6.484375e-4 C 1.9814375,-0.04752344 3.2939375,-0.04752344 4.067375,-0.04752344 c 0.7617188,0 2.0859375,0 2.8007813,0.0468750025 V -0.64517969 c -1.7109375,0 -1.9804688,0 -1.9804688,-1.11328121 V -8.4733047 H 12.2705 v 6.7148438 c 0,1.11328121 -0.269531,1.11328121 -1.980469,1.11328121 V -6.484375e-4 C 11.004875,-0.04752344 12.317375,-0.04752344 13.090813,-0.04752344 c 0.761718,0 2.074218,0 2.800781,0.0468750025 V -0.64517969 c -1.710938,0 -1.980469,0 -1.980469,-1.11328121 z m 12.717773,9.3398438 c 0.09375,-0.09375 0.09375,-0.1523437 0.09375,-0.3984375 0,-2.53125 -1.335937,-4.7343753 -4.160156,-4.7343753 -2.625,0 -4.710937,2.5078128 -4.710937,5.5546878 0,3.2226563 2.355468,5.60156251 4.980468,5.60156251 2.777344,0 3.867188,-2.62500001 3.867188,-3.15234371 0,-0.1640625 -0.152344,-0.1640625 -0.199219,-0.1640625 -0.175781,0 -0.199219,0.046875 -0.292969,0.3398437 -0.550781,1.6875 -1.910156,2.53125001 -3.199218,2.53125001 -1.066407,0 -2.132813,-0.59765625 -2.800782,-1.68750001 -0.773437,-1.265625 -0.773437,-2.7304687 -0.773437,-3.890625 z m -7.160156,-0.375 c 0.164063,-3.5625 2.074219,-4.3593748 3.070313,-4.3593748 1.6875,0 2.824218,1.5820311 2.847656,4.3593748 z M 36.17675,-6.4225234 c 0,-1.6289063 0,-2.4960938 -1.03125,-3.46875 -0.925781,-0.8203126 -1.992187,-1.0664066 -2.835937,-1.0664066 -1.957032,0 -3.363282,1.5351566 -3.363282,3.1757816 0,0.9140625 0.738282,0.9609375 0.890625,0.9609375 0.316407,0 0.890625,-0.1992188 0.890625,-0.890625 0,-0.6210938 -0.46875,-0.890625 -0.890625,-0.890625 -0.09375,0 -0.222656,0.023437 -0.292968,0.046875 0.515625,-1.5585941 1.851562,-2.0039061 2.71875,-2.0039061 1.242187,0 2.601562,1.0898436 2.601562,3.1757811 v 1.0898437 c -1.453125,0.046875 -3.222656,0.2460938 -4.605469,0.984375 -1.558593,0.8671875 -2.003906,2.109375 -2.003906,3.0585938 0,1.89843746 2.226563,2.44921871 3.539063,2.44921871 1.359375,0 2.625,-0.7734375 3.175781,-2.17968751 0.04687,1.08984376 0.738281,2.07421876 1.828125,2.07421876 0.527344,0 1.839844,-0.33984375 1.839844,-2.29687496 v -1.3945313 h -0.445313 v 1.4179688 c 0,1.51171871 -0.667969,1.71093746 -0.996094,1.71093746 -1.019531,0 -1.019531,-1.28906246 -1.019531,-2.37890626 z m -1.3125,2.9765625 c 0,2.15625 -1.535156,3.24609371 -2.894531,3.24609371 -1.242188,0 -2.203125,-0.91406251 -2.203125,-2.05078121 0,-0.75 0.316406,-2.0625 1.757812,-2.859375 1.183594,-0.6679688 2.554688,-0.7617188 3.339844,-0.8085938 z m 7.5,-6.5625001 H 45.833 v -0.644531 h -3.46875 v -4.59375 h -0.445312 c -0.04687,2.554687 -0.914063,4.78125 -3.023438,4.839844 v 0.398437 h 2.15625 v 6.9609376 c 0,0.46875 0,3.24609371 2.882813,3.24609371 1.453125,0 2.296875,-1.44140621 2.296875,-3.26953121 v -1.4179688 h -0.445313 v 1.3945313 c 0,1.7109375 -0.667969,2.84765621 -1.710937,2.84765621 -0.714844,0 -1.710938,-0.4921875 -1.710938,-2.75390621 z m 0,0"
       style="fill:#d4b574;fill-opacity:1;fill-rule:nonzero;stroke:none"
       aria-label="Heat"
       transform="matrix(1.3333333,0,0,1.3333333,191.38933,67.981333)" />
    <path
       id="path33"
       d="m 25.23466,11.4258 c 0,0 2.51564,3.49926 6.30867,11.42581 3.79303,7.92654 13.73461,46.97146 21.02891,45.70323 7.29428,-1.26825 15.49589,-46.60027 31.54335,-54.84387 16.04743,-8.24362 70.11053,-3.9362 84.11558,-4.57033 14.00505,-0.63412 16.82312,0 16.82312,0"
       style="fill:none;stroke:#d4b574;stroke-width:1.19553;stroke-linecap:butt;stroke-linejoin:miter;stroke-miterlimit:10;stroke-dasharray:none;stroke-opacity:0.9"
       transform="matrix(1.3333333,0,0,-1.3333333,86.581333,280.38133)"
       clip-path="url(#clipPath34)" />
    <path
       id="path35"
       d="m 68.9819,37.53377 h 30.26735 v 16.3389 H 68.9819 Z"
       style="fill:#ffffff;fill-opacity:0.6;fill-rule:nonzero;stroke:none"
       transform="matrix(1.3333333,0,0,-1.3333333,86.581333,280.38133)"
       clip-path="url(#clipPath36)" />
    <g
       id="g36"
       aria-label="T(z)"
       transform="matrix(1.3333333,0,0,1.3333333,179.884,224.22667)"
       clip-path="url(#clipPath41)">
      <path
         id="path37"
         d="m 5.9756719,-8.7539844 c 0.09375,-0.3398437 0.1171875,-0.46875 0.3398437,-0.5273437 0.1054688,-0.023437 0.5859375,-0.023437 0.8789063,-0.023437 1.4414062,0 2.109375,0.058594 2.109375,1.171875 0,0.2109375 -0.058594,0.7617187 -0.140625,1.2890625 l -0.011719,0.1757812 c 0,0.058594 0.058594,0.140625 0.140625,0.140625 0.140625,0 0.140625,-0.070312 0.1875,-0.3046875 l 0.421875,-2.53125 c 0.023437,-0.1289062 0.023437,-0.1640625 0.023437,-0.1992187 0,-0.1640625 -0.082031,-0.1640625 -0.375,-0.1640625 h -7.839843 c -0.328125,0 -0.3515625,0.011719 -0.4335938,0.2695312 l -0.87890622,2.5898438 c -0.0117188,0.023437 -0.0585938,0.1875 -0.0585938,0.1992187 0,0.070312 0.0585938,0.140625 0.15234375,0.140625 0.10546875,0 0.140625,-0.058594 0.19921875,-0.2460937 0.59765632,-1.734375 0.90234382,-2.53125 2.81250002,-2.53125 h 0.9609375 c 0.3398438,0 0.4804688,0 0.4804688,0.1523437 0,0.046875 0,0.070312 -0.070312,0.328125 l -1.9218749,7.7109375 c -0.140625,0.55078127 -0.1757814,0.70312502 -1.6875001,0.70312502 -0.36328122,0 -0.45703122,0 -0.45703122,0.26953125 0,0.140625005 0.15234375,0.140625005 0.22265622,0.140625005 0.3632812,0 0.7382812,-0.023437505 1.0898438,-0.023437505 h 2.2382812 c 0.3632812,0 0.75,0.023437505 1.1015625,0.023437505 0.1640625,0 0.3046875,0 0.3046875,-0.269531255 0,-0.140625 -0.1054688,-0.140625 -0.46875,-0.140625 -1.3007812,0 -1.3007812,-0.140625 -1.3007812,-0.3515625 0,-0.0117188 0,-0.1171875 0.058594,-0.33984372 z m 0,0"
         style="fill:#aa915d;fill-opacity:0.9;fill-rule:nonzero;stroke:none" />
      <path
         id="path38"
         d="m 14.846766,3.4803906 c 0,-0.035156 0,-0.070312 -0.246094,-0.3046875 -1.429688,-1.453125 -2.238281,-3.82031248 -2.238281,-6.75 0,-2.7773437 0.679687,-5.1796875 2.34375,-6.8671871 0.140625,-0.128907 0.140625,-0.164063 0.140625,-0.199219 0,-0.09375 -0.07031,-0.117188 -0.128907,-0.117188 -0.1875,0 -1.359375,1.0312504 -2.0625,2.4375004 -0.738281,1.453125 -1.066406,2.9882812 -1.066406,4.7460937 0,1.2773438 0.199219,2.98828127 0.949219,4.52343752 0.84375,1.72265628 2.015625,2.64843748 2.179687,2.64843748 0.05859,0 0.128907,-0.023437 0.128907,-0.1171875 z m 0,0"
         style="fill:#aa915d;fill-opacity:0.9;fill-rule:nonzero;stroke:none" />
      <path
         id="path39"
         d="m 17.462977,-1.1602344 c 0.621093,-0.703125 1.125,-1.1484375 1.839843,-1.7929687 0.867188,-0.75 1.230469,-1.1015625 1.441407,-1.3242188 0.996093,-0.984375 1.5,-1.8164062 1.5,-1.9335937 0,-0.1171875 -0.117188,-0.1171875 -0.140625,-0.1171875 -0.105469,0 -0.128907,0.058594 -0.199219,0.1640625 -0.363281,0.609375 -0.703125,0.9140625 -1.078125,0.9140625 -0.304688,0 -0.457031,-0.1289063 -0.738281,-0.46875 -0.292969,-0.3632813 -0.539063,-0.609375 -0.960938,-0.609375 -1.042969,0 -1.675781,1.3125 -1.675781,1.6054687 0,0.046875 0.01172,0.1289063 0.140625,0.1289063 0.117187,0 0.128906,-0.058594 0.175781,-0.1523438 0.246094,-0.5742187 0.9375,-0.6796875 1.207031,-0.6796875 0.304688,0 0.585938,0.1054688 0.890625,0.234375 0.539063,0.2226563 0.773438,0.2226563 0.914063,0.2226563 0.105469,0 0.164062,0 0.234375,-0.011719 -0.480469,0.5625 -1.253906,1.2539063 -1.898438,1.8398438 l -1.441406,1.3359375 c -0.878906,0.89062497 -1.40625,1.73437497 -1.40625,1.82812497 0,0.09375 0.07031,0.1171875 0.152344,0.1171875 0.08203,0 0.105469,-0.0117188 0.199219,-0.1875 0.234375,-0.3515625 0.691406,-0.890625 1.21875,-0.890625 0.304687,0 0.445312,0.10546875 0.738281,0.46875 0.269531,0.31640625 0.515625,0.609375 0.972656,0.609375 1.40625,0 2.203125,-1.81640627 2.203125,-2.14453127 0,-0.058594 -0.01172,-0.1523437 -0.152344,-0.1523437 -0.117187,0 -0.128906,0.058594 -0.175781,0.2109375 -0.316406,0.84375 -1.160156,1.18359372 -1.722656,1.18359372 -0.292969,0 -0.585938,-0.09375 -0.878906,-0.22265625 C 18.248133,-1.2188281 18.08407,-1.2188281 17.89657,-1.2188281 c -0.140625,0 -0.304687,0 -0.433593,0.058594 z m 0,0"
         style="fill:#aa915d;fill-opacity:0.9;fill-rule:nonzero;stroke:none" />
      <path
         id="path40"
         d="m 26.855555,-3.5742969 c 0,-1.0898437 -0.140625,-2.8710937 -0.949219,-4.5351562 -0.84375,-1.7109375 -2.015625,-2.6484379 -2.179688,-2.6484379 -0.05859,0 -0.128906,0.02344 -0.128906,0.117188 0,0.03516 0,0.07031 0.246094,0.316406 1.441406,1.4414064 2.238281,3.8085939 2.238281,6.7382814 0,2.77734372 -0.667969,5.1796875 -2.332031,6.8671875 -0.152344,0.1289062 -0.152344,0.1640625 -0.152344,0.1992187 0,0.09375 0.07031,0.1171875 0.128906,0.1171875 0.1875,0 1.371094,-1.03125 2.074219,-2.4375 0.726563,-1.46484373 1.054688,-3.0117187 1.054688,-4.734375 z m 0,0"
         style="fill:#aa915d;fill-opacity:0.9;fill-rule:nonzero;stroke:none" />
    </g>
  </g>
</svg>
